<svg width="390" height="442" viewBox="0 0 390 442" fill="none" xmlns="http://www.w3.org/2000/svg">
<path d="M373.352 363C372.689 363 372.178 362.553 372.247 362.045L384.665 272.023L89.9168 251.621L-35.3072 311.734C-35.8311 311.986 -36.5126 311.858 -36.8345 311.452C-37.1564 311.046 -36.9944 310.515 -36.4727 310.264L89.0643 250L385.988 270.379C386.601 270.42 387.06 270.847 386.994 271.33L374.456 362.226C374.396 362.668 373.914 362.998 373.352 362.998V363Z" fill="white"/>
<path d="M332.742 162.121C303.298 160.521 236.753 156.28 206.964 155.56C197.592 155.335 192.071 162.34 191.923 169.642C191.603 197.327 191.123 254.455 190.962 258.935L108.71 312.384L109.19 320.066L279.614 362.953L339.301 295.104L338.66 286.783L346.181 177.328C346.855 169.242 340.344 162.442 332.74 162.126L332.742 162.121Z" fill="#6959D6"/>
<path d="M325.862 166.281L212.408 160.36C204.567 160.201 198.005 166.601 198.005 174.442C197.685 201.327 197.205 255.414 197.205 255.414L332.265 280.858C332.265 280.858 337.226 212.209 339.306 181.643C340.004 172.911 333.109 166.584 325.862 166.281Z" fill="white"/>
<path d="M314.34 291.419C313.86 290.778 313.056 290.16 312.099 289.978C309.044 289.404 199.283 267.255 197.203 266.935C195.923 266.614 194.642 266.935 193.682 267.576C192.268 268.555 162.347 287.72 158.157 290.619C156.347 291.826 157.091 294.706 158.957 294.94C161.518 295.581 279.934 323.904 282.493 324.545C283.773 324.866 285.236 324.406 286.175 323.425C287.976 321.544 311.619 296.06 313.699 293.981C314.34 293.34 314.499 292.381 314.34 291.422V291.419Z" fill="white"/>
<path d="M221.846 319.264C213.685 317.343 198.328 313.646 192.723 312.382C191.284 312.057 189.832 312.368 188.723 313.182C186.14 315.071 181.361 318.623 177.841 321.182C176.444 322.019 176.296 324.565 178.641 325.502C186.803 327.582 202.98 331.69 208.405 333.184C209.528 333.494 210.805 333.184 211.767 332.543C214.167 330.623 219.181 326.853 222.808 324.061C224.66 322.636 223.696 319.569 221.849 319.261L221.846 319.264Z" fill="white"/>
<path d="M213.685 173.163L211.446 258.135L316.901 277.817L321.86 181.163L213.685 173.163Z" fill="#FFB949"/>
<path d="M325.761 165.178L212.268 159.255C203.835 159.074 196.913 165.888 196.739 174.429C196.418 201.314 195.939 255.403 195.939 255.403C195.934 255.938 196.312 256.4 196.838 256.499C332.7 282.129 332.152 282.213 332.778 281.731C333.399 281.251 333.624 281.786 340.247 181.391C340.802 172.971 334.267 165.7 325.761 165.176V165.178ZM331.087 279.541L198.155 254.499C198.219 247.259 198.653 199.27 198.947 174.465C199.097 167.15 204.984 161.306 212.244 161.463L325.633 167.382C332.718 167.815 338.49 173.844 338.037 181.32L331.085 279.536L331.087 279.541Z" fill="#501200"/>
<path d="M337.56 286.16L277.474 354.031L111.475 312.061L191.567 259.861C192.078 259.527 192.224 258.844 191.89 258.332C191.556 257.821 190.873 257.677 190.361 258.009L108.109 311.617C107.384 312.09 107.554 313.414 108.65 313.626L276.96 356.182L277.881 363.094C277.961 363.693 278.509 364.124 279.123 364.045C279.729 363.963 280.153 363.408 280.071 362.803C280.071 362.803 279.103 355.554 279.099 355.532L339.129 287.716C339.56 287.283 339.558 286.582 339.125 286.151C338.694 285.722 337.993 285.725 337.562 286.155L337.56 286.16Z" fill="#501200"/>
<path d="M208.984 268.853C208.629 268.358 207.939 268.243 207.442 268.597L195.921 276.778L183.359 274.016C182.767 273.89 182.175 274.261 182.045 274.858C181.914 275.454 182.29 276.044 182.887 276.175L193.484 278.511L180.57 287.68L166.393 284.577C165.797 284.449 165.209 284.827 165.078 285.421C164.948 286.018 165.328 286.606 165.923 286.736L178.12 289.419L168.239 296.436C167.361 297.055 167.799 298.443 168.877 298.443C169.379 298.443 168.466 298.984 181.032 290.06L197.223 293.621L188.02 301.124C187.216 301.776 187.682 303.086 188.717 303.086C189.273 303.086 188.48 303.599 199.974 294.226L216.945 297.957L208.129 306.129C207.389 306.812 207.879 308.045 208.878 308.045C209.495 308.045 208.788 308.527 219.608 298.538L236.583 302.156L227.621 311.117C226.919 311.816 227.427 313.005 228.401 313.005C229.111 313.005 228.497 313.367 239.155 302.708L256.194 306.487L247.598 315.623C246.935 316.331 247.445 317.484 248.404 317.484C249.089 317.484 248.453 317.946 258.663 307.033L276.334 310.951C266.5 321.241 266.981 320.496 266.981 321.338C266.981 321.948 267.477 322.364 268.086 322.364C268.654 322.364 267.826 323.049 278.86 311.508C295.493 315.097 294.591 314.925 294.812 314.925C296.129 314.925 296.33 313.018 295.044 312.739L280.664 309.59L289.939 299.678C306.014 303.252 305.153 303.082 305.376 303.082C306.689 303.082 306.896 301.183 305.614 300.898L291.669 297.833L300.26 288.653C300.677 288.208 300.655 287.508 300.211 287.09C299.767 286.672 299.068 286.692 298.649 287.139L289.159 297.28L271.457 293.389L279.771 284.659C280.191 284.217 280.175 283.519 279.733 283.097C279.291 282.679 278.593 282.692 278.171 283.136L269.026 292.856L252.882 289.307L261.35 280.84C261.781 280.409 261.781 279.709 261.35 279.278C260.919 278.847 260.219 278.847 259.788 279.278L250.32 288.743L234.075 285.172L242.442 277.344C242.888 276.926 242.91 276.228 242.495 275.781C242.077 275.337 241.376 275.313 240.932 275.731L231.385 284.579L215.968 281.189L224.945 273.87C225.418 273.483 225.487 272.787 225.098 272.314C224.711 271.843 224.015 271.773 223.542 272.162L213.212 280.582L198.829 277.419L208.724 270.393C209.221 270.038 209.334 269.348 208.978 268.851L208.984 268.853ZM221.639 296.673L232.094 287.022L248.411 290.617L238.413 300.346L221.639 296.673ZM278.157 309.044L260.422 305.161L269.748 295.194L287.437 299.126L278.157 309.044ZM257.958 304.622L241.001 300.909L250.999 291.181L267.322 294.668L257.958 304.62V304.622ZM229.394 286.425L218.969 296.087L202.2 292.416L213.771 282.982L229.394 286.425ZM211.018 282.376L199.442 291.813L183.485 288.319L196.394 279.152L211.018 282.374V282.376Z" fill="#501200"/>
<path d="M307.535 201.21C304.556 201.886 297.928 202.518 294.045 200.816C295.493 199.786 296.856 198.452 297.219 196.918C297.82 194.372 295.342 191.638 292.222 192.931C290.379 193.7 288.701 195.804 289.084 197.963C289.212 198.86 289.579 199.738 290.129 200.509C283.561 203.636 274.084 203.729 268.604 198.847C271.72 196.785 274.451 192.284 271.728 189.797C270.341 188.533 267.934 188.381 266.128 189.446C263.101 191.232 263.202 195.413 265.14 198.297C258.935 200.719 248.824 199.873 245.113 197.532C248.278 196.262 252.104 193.663 251.582 190.277C250.82 185.322 242.826 186.507 240.658 191.76C240.017 193.316 240.09 194.953 240.857 196.414C237.193 197.108 232.541 197.34 228.759 196.438C228.015 195.583 226.673 196.323 226.693 197.263C226.715 198.445 227.986 198.542 229.63 198.889C232.101 199.409 237.323 199.486 242.472 198.339C244.415 199.97 246.736 200.991 249.138 201.287C254.106 202.352 261.653 202.27 266.659 200.058C272.864 206.138 284.149 206.184 291.833 202.129C295.862 204.741 303.561 204.377 308.021 203.364C308.616 203.227 308.989 202.637 308.854 202.041C308.719 201.446 308.129 201.077 307.533 201.207L307.535 201.21ZM242.705 192.604C243.812 189.919 247.346 188.717 248.773 189.618C249.737 190.228 250.026 192.043 246.839 194.166C245.827 194.84 244.629 195.406 243.193 195.886C243.1 195.766 243.005 195.649 242.895 195.53C242.351 194.597 242.287 193.612 242.705 192.602V192.604ZM267.253 191.351C268.175 190.805 269.536 190.787 270.241 191.43C270.88 192.014 270.623 192.962 270.292 193.665C269.618 195.126 268.537 196.312 267.07 197.205C265.821 195.468 265.311 192.496 267.253 191.351ZM294.858 195.38C295.806 196.805 293.543 198.542 292.107 199.457C291.663 198.916 291.36 198.268 291.267 197.616C290.978 195.974 293.711 193.758 294.861 195.382L294.858 195.38Z" fill="#501200"/>
<path d="M306.2 232.428C301.296 233.811 293.992 232.921 290.763 229.301C291.513 228.945 292.242 228.538 292.887 227.999C294.671 226.764 296.786 223.219 295.944 221.042C295.656 220.297 294.794 219.099 292.299 219.431C287.795 219.913 286.074 224.152 287.557 228.214C280.476 230.521 271.13 229.396 266.349 225.639C272.652 221.097 271.043 215.964 267.649 215.424C263.609 214.779 259.448 220.014 262.92 225.177C257.222 227.999 249.178 228.001 243.765 223.663C250.603 221.416 251.348 216.067 248.977 213.616C246.566 211.126 242.212 211.608 239.991 214.686C238.236 217.119 238.501 219.61 239.887 222.271C236.11 222.724 232.285 222.357 229.135 221.422C228.45 221.148 227.834 220.688 227.14 220.339C226.594 220.067 225.931 220.288 225.657 220.832C225.383 221.378 225.604 222.041 226.15 222.315C226.768 222.624 227.378 223.102 228.408 223.506C232.243 224.653 236.738 225.027 241.255 224.311C245.73 229.436 256.276 231.241 264.413 226.89C268.458 230.905 279.525 233.336 288.631 230.18C292.171 234.965 300.854 236.223 306.795 234.554C307.383 234.388 307.725 233.778 307.559 233.19C307.394 232.603 306.781 232.26 306.196 232.426L306.2 232.428ZM241.785 215.979C243.958 212.965 248.448 214.209 247.964 217.122C247.538 219.367 245.64 220.912 242.174 221.833C241.754 221.137 241.259 220.156 241.018 219.228C240.831 218.098 241.111 216.916 241.785 215.979ZM267.302 217.606C268.798 217.846 269.525 220.779 264.809 224.023C262.369 220.514 265.065 217.259 267.302 217.606ZM289.703 223.38C290.726 221.418 293.685 221.329 293.882 221.84C294.222 222.722 292.874 225.318 291.55 226.242C290.975 226.72 290.317 227.075 289.614 227.4C289.117 225.997 289.135 224.474 289.705 223.382L289.703 223.38Z" fill="#501200"/>
<path d="M300.936 259.757C295.667 260.342 291.49 259.823 288.644 258.181C289.011 258.026 290.531 257.352 290.531 257.352C295.093 254.952 295.223 249.414 289.775 249.67C285.786 249.374 282.608 253.454 284.476 257.118C278.63 258.493 268.144 258.155 264.356 253.752C267.974 251.049 271.607 246.786 268.369 243.728C267.441 242.855 266.332 242.598 265.246 243.012C262.749 243.96 261.054 248.307 260.906 249.973C260.906 250.917 261.098 251.98 261.454 253.034C255.843 255.77 247.041 255.458 242.154 250.908C245.345 249.88 247.306 247.947 247.741 245.332C248.426 240.669 242.753 238.47 239.191 240.678C236.189 242.534 236.402 246.227 238.046 249.467C238.077 249.516 238.112 249.562 238.147 249.611C232.936 250.247 227.814 249.938 222.861 248.134C222.286 247.927 221.654 248.221 221.444 248.795C221.237 249.368 221.53 250.002 222.105 250.212C227.836 252.298 233.732 252.528 239.763 251.62C245.224 257.708 256.121 258.287 262.504 254.983C266.953 260.526 279.028 260.908 285.983 259.014C286.213 259.229 286.44 259.414 286.637 259.503C290.54 262.387 296.374 262.484 301.179 261.951C301.784 261.883 302.222 261.337 302.156 260.731C302.089 260.124 301.539 259.699 300.936 259.755V259.757ZM240.355 242.556C241.538 241.825 243.323 241.869 244.506 242.645C246.534 243.98 245.98 247.757 240.543 249.065C240.49 248.999 240.028 248.45 239.957 248.36C238.959 246.364 238.459 243.732 240.355 242.559V242.556ZM266.029 245.078C266.25 244.996 266.473 244.981 266.853 245.337C268.663 247.049 265.319 250.227 263.368 251.735C263.204 251.125 263.114 250.546 263.112 250.075C263.213 248.946 264.692 245.586 266.029 245.078ZM289.731 251.878C290.832 251.843 291.574 252.07 291.683 252.477C291.846 253.096 291.059 254.577 289.579 255.359C288.385 255.883 287.543 256.276 286.708 256.555C285.079 254.265 287.205 251.712 289.729 251.878H289.731Z" fill="#501200"/>
<path d="M124.554 118.595C125.146 116.816 125.195 117.472 125.195 116.995C100.233 108.853 76.9149 94.9127 59.2658 74.91C51.7695 66.3198 38.0255 49.8066 42.4234 36.9688C35.7426 36.9997 18.8162 37.3489 14.4581 40.5047C5.17609 47.3867 6.61701 61.787 6.61701 72.0304C6.99713 119.075 6.72972 154.136 13.499 196.688C15.899 211.249 27.2606 212.209 40.0632 213.009C62.9499 214.131 84.535 212.704 107.753 209.647C105.674 203.727 106.474 195.885 107.112 190.604C109.033 170.601 115.913 142.757 132.715 129.795L132.877 128.995C127.347 127.616 123.917 122.434 124.556 118.593L124.554 118.595Z" fill="white"/>
<path d="M51.5815 105.793C37.6585 105.793 26.4583 116.996 26.4583 130.917C26.4583 144.97 37.7049 155.576 50.6224 156.04C64.5432 156.541 76.4661 145.805 76.707 131.876C76.9722 116.501 65.0913 105.791 51.5837 105.791L51.5815 105.793Z" fill="#FFB949"/>
<path d="M48.061 97.1364C47.5063 97.1364 47.0289 96.7209 46.9649 96.1551L44.0852 70.7114C44.0167 70.1059 44.4521 69.5578 45.0598 69.4893C45.6609 69.4141 46.2134 69.8561 46.282 70.4617L49.1616 95.9054C49.2345 96.5596 48.724 97.1342 48.061 97.1342V97.1364Z" fill="#FFB949"/>
<path d="M28.5402 105.937C27.7645 105.937 28.2241 106.144 10.7497 86.3605C10.3452 85.903 10.3894 85.2046 10.8469 84.8002C11.3044 84.3958 12.0027 84.4378 12.4072 84.8952L29.3689 104.098C30.0032 104.816 29.4794 105.934 28.5402 105.934V105.937Z" fill="#FFB949"/>
<path d="M20.0581 128.021L7.56056 127.86C6.9506 127.853 6.46219 127.352 6.46882 126.742C6.47766 126.132 6.9506 125.588 7.58708 125.65L20.0692 125.811C20.6791 125.818 21.1675 126.319 21.1609 126.929C21.1521 127.535 20.6592 128.021 20.0559 128.021H20.0581Z" fill="#FFB949"/>
<path d="M74.4663 104.498C73.5226 104.498 73.0077 103.375 73.6375 102.661L80.8377 94.4997C81.2421 94.04 81.9405 93.9958 82.3979 94.4024C82.8554 94.8069 82.8996 95.5052 82.4952 95.9627C74.716 104.781 75.1624 104.498 74.464 104.498H74.4663Z" fill="#FFB949"/>
<path d="M9.65791 166.265C8.65457 166.265 8.16837 165.023 8.91314 164.343L23.4748 151.06C23.9279 150.649 24.6262 150.683 25.0351 151.133C25.4462 151.584 25.4152 152.283 24.9644 152.696C9.06342 167.213 10.2701 166.267 9.65791 166.267V166.265Z" fill="#FFB949"/>
<path d="M41.6631 190.27C40.9891 190.27 40.4742 189.675 40.567 189.014L44.0875 163.571C44.2886 162.116 46.4765 162.428 46.2776 163.873L42.7571 189.317C42.6797 189.87 42.2068 190.272 41.6631 190.272V190.27Z" fill="#FFB949"/>
<path d="M86.6454 180.022L70.7202 159.927C70.34 159.447 70.4218 158.753 70.8992 158.373C71.3788 157.993 72.0727 158.075 72.4506 158.554L88.3692 178.623C89.3239 179.582 87.9825 181.368 86.6432 180.022H86.6454Z" fill="#FFB949"/>
<path d="M110.951 147.862C110.633 147.862 110.894 147.918 86.7119 138.667C86.1417 138.448 85.8566 137.809 86.0754 137.239C86.2942 136.669 86.9329 136.386 87.503 136.603L111.347 145.723C112.487 146.161 112.173 147.86 110.951 147.86V147.862Z" fill="#FFB949"/>
<path d="M133.497 130.059C133.466 129.449 132.936 128.989 132.335 129.013C116.33 129.855 100.882 130.439 86.4134 130.744C86.157 125.637 84.5238 99.9917 84.3713 96.6214C84.3448 96.0115 83.8166 95.5297 83.2177 95.5673C82.6078 95.596 82.137 96.1131 82.1636 96.7209C82.3183 100.1 83.9426 125.65 84.2034 130.777C83.1139 130.788 9.16284 131.685 8.63244 131.699C7.73518 107.733 7.85452 79.4497 7.68214 68.3334C7.53628 58.8923 7.35505 47.1418 15.1055 41.398C18.6393 38.8388 30.9755 37.9283 41.3426 37.9283C41.9526 37.9283 42.4476 37.4332 42.4476 36.8233C42.4476 36.2133 41.9526 35.7183 41.3426 35.7183C34.6795 35.7183 18.6592 36.0962 13.7994 39.6167C5.12958 46.0456 5.31964 58.4238 5.47434 68.3688C6.13955 111.614 4.84671 149.339 12.4071 196.867C14.9928 212.551 27.7025 213.345 40.0078 214.114C62.8482 215.234 84.5636 213.816 107.897 210.746C108.502 210.666 108.929 210.112 108.847 209.506C108.768 208.903 108.208 208.474 107.607 208.556C101.932 209.303 96.0225 209.919 90.2698 210.509C89.8787 198.142 89.1184 186.61 88.2145 170.824C86.3979 139.093 86.6808 135.385 86.557 132.952C101.035 132.644 116.465 132.063 132.452 131.221C133.062 131.188 133.531 130.669 133.497 130.059ZM88.0665 210.726C71.8185 212.271 55.6922 212.669 40.1316 211.906C27.6583 211.126 16.889 210.454 14.5906 196.513C11.3684 176.263 9.39268 155.209 8.712 133.909L84.347 132.987C84.5636 137.126 83.7901 133.091 86.4885 179.366C87.0919 189.698 87.7416 200.374 88.0665 210.726Z" fill="#501200"/>
<path d="M167.918 35.0617C162.431 27.0925 148.716 28.6748 140.395 28.1798C116.869 26.7809 93.0279 25.8593 69.5047 25.9389C61.5045 25.9654 48.5406 26.2593 43.7405 34.1004C43.4201 34.7413 42.9405 35.38 42.7814 36.0209C37.3404 48.8234 51.5529 65.9708 59.1044 74.5854C83.4984 102.423 118.66 117.899 155.279 124.193C156.733 116.927 169.761 79.7678 170.641 53.6235C170.835 47.8643 171.571 40.3635 167.92 35.0617H167.918Z" fill="#FCCAC2"/>
<path d="M167.118 173.162C165.766 159.213 161.198 137.477 155.277 124.354L140.581 125.201C117.99 134.6 109.307 167.73 107.11 190.604C106.35 198.964 105.346 210.295 111.91 215.568C121.692 223.427 131.592 207.247 140.554 206.286C148.554 205.486 159.916 222.609 164.557 209.647C167.118 202.765 167.706 179.233 167.118 173.162Z" fill="#FCCAC2"/>
<path d="M155.374 123.119L125.289 115.919C124.839 115.811 124.368 115.997 124.114 116.381C121.274 120.642 125.557 126.947 130.302 129.184C137.031 132.355 149.984 129.33 155.772 125.086C156.53 124.529 156.289 123.338 155.376 123.119H155.374Z" fill="#501200"/>
<path d="M145.1 109.158C132.541 91.706 129.394 87.233 128.894 86.7313C128.609 86.4462 128.415 86.0595 128.209 85.6506C127.935 85.1047 128.156 84.4373 128.702 84.1655C129.25 83.8892 129.911 84.1102 130.183 84.6561C130.266 84.8241 130.41 85.1092 130.472 85.1887C131.131 85.8429 132.947 88.4507 146.895 107.87C147.756 109.07 145.935 110.321 145.1 109.161V109.158Z" fill="#501200"/>
<path d="M141.036 171.547C140.28 171.547 139.747 170.805 139.988 170.089C143.657 159.229 147.622 147.723 148.738 136.251C148.797 135.646 149.334 135.21 149.944 135.259C150.552 135.319 150.996 135.858 150.937 136.466C149.803 148.121 145.836 159.704 142.081 170.798C141.924 171.258 141.495 171.549 141.034 171.549L141.036 171.547Z" fill="#501200"/>
<path d="M128.872 165.786C128.01 165.786 127.469 164.824 127.942 164.084C130.529 160.04 133.069 154.097 136.79 150.881C137.252 150.481 137.948 150.532 138.348 150.996C138.746 151.458 138.695 152.154 138.234 152.554C134.892 155.441 132.366 161.271 129.8 165.275C129.59 165.604 129.232 165.783 128.868 165.783L128.872 165.786Z" fill="#501200"/>
</svg>
