<svg width="353" height="407" viewBox="0 0 353 407" fill="none" xmlns="http://www.w3.org/2000/svg">
<path d="M291.262 118.698C283.277 119.695 284.433 119.512 283.812 119.715C266.559 122.788 -43.4648 189.752 -43.825 189.835L-4.53114 376.221L160.821 345.108C161.368 338.541 170.548 332.375 177.473 341.894C178.641 343.508 342.825 308.005 342.825 308.005L291.262 118.698Z" fill="#6959D6"/>
<path d="M325.442 275.287C322.904 264.172 290.558 125.444 282.504 117.383C278.784 114.31 164.677 137.377 128.546 148.789C174.303 326.941 175.475 328.453 176.018 328.602C177.489 329.009 291.997 303.164 308.212 300.848C313.324 300.114 321.797 297.926 325.306 293.252C328.814 288.577 326.578 280.26 325.442 275.287Z" fill="white"/>
<path d="M132.044 196.553C131.983 196.349 119.535 151.479 119.482 151.272C105.817 153.756 -13.7253 177.305 -18.1168 178.441C-23.8881 179.931 -29.2808 180.708 -29.2177 186.62C-28.9979 207.513 -2.23158 324.379 1.75905 339.845C4.15018 349.139 5.38949 355.83 8.3728 359.281C10.2145 361.412 11.4009 361.365 14.4575 361.229C38.8774 360.14 161.82 335.423 163.023 331.957C164.879 326.575 140.343 224.52 132.044 196.553Z" fill="white"/>
<path d="M128.713 152.932C128.127 150.879 127.833 149.566 127.695 149.165C127.665 149.073 127.653 148.976 127.66 148.88C127.668 148.783 127.694 148.689 127.738 148.602C127.782 148.516 127.843 148.439 127.917 148.377C127.991 148.314 128.077 148.267 128.169 148.237C162.846 137.285 278.322 113.413 282.801 116.955C286.187 120.303 283.537 120.863 283.13 119.845C282.817 119.168 282.375 118.557 281.832 118.046C277.259 115.798 168.576 137.285 129.282 149.422C129.502 150.273 129.724 151.166 130.113 152.531C130.149 152.711 130.116 152.898 130.02 153.055C129.925 153.212 129.774 153.327 129.597 153.377C129.421 153.428 129.232 153.41 129.068 153.328C128.904 153.245 128.777 153.104 128.713 152.932Z" fill="#FCCAC2"/>
<path d="M110.367 166.809C108.755 163.815 110.56 155.27 111.95 152.143C112.826 149.678 114.26 147.449 116.14 145.631C118.02 143.812 120.294 142.452 122.787 141.658C129.352 139.656 136.387 141.469 142.137 149.684C143.499 151.999 144.564 154.475 145.308 157.055C145.353 157.238 145.326 157.432 145.232 157.596C145.138 157.759 144.984 157.88 144.802 157.932C144.621 157.985 144.427 157.966 144.259 157.878C144.092 157.79 143.965 157.641 143.906 157.462C143.204 155.017 142.198 152.669 140.912 150.474C135.503 142.763 129.083 141.255 123.208 143.056C120.924 143.794 118.842 145.049 117.123 146.723C115.405 148.398 114.096 150.447 113.299 152.71C112.142 155.321 110.306 163.598 111.659 166.113C111.751 166.284 111.772 166.485 111.716 166.672C111.66 166.858 111.532 167.015 111.361 167.107C111.19 167.199 110.989 167.22 110.802 167.164C110.616 167.108 110.459 166.98 110.367 166.809Z" fill="#FCCAC2"/>
<path d="M129.708 239.79C129.478 239.776 129.261 239.68 129.097 239.519C128.727 239.125 128.67 238.372 128.814 236.166C129.03 232.049 130.341 228.064 132.611 224.625C133.963 222.468 135.841 220.692 138.069 219.462C147.614 213.298 157.88 221.229 161.083 231.986C161.124 232.167 161.093 232.356 160.998 232.517C160.904 232.676 160.751 232.794 160.574 232.845C160.395 232.898 160.204 232.879 160.039 232.796C159.874 232.71 159.746 232.568 159.683 232.393C156.747 222.527 147.508 215.095 138.861 220.679C136.802 221.797 135.069 223.431 133.83 225.419C131.689 228.646 130.459 232.393 130.269 236.263C130.187 237.022 130.173 237.786 130.226 238.547C130.327 238.648 130.396 238.779 130.423 238.921C130.451 239.062 130.436 239.208 130.38 239.34C130.325 239.473 130.232 239.587 130.112 239.666C129.992 239.747 129.851 239.79 129.708 239.79Z" fill="#FCCAC2"/>
<path d="M149.056 314.22C147.982 313.144 148.944 310.557 149.144 309.346C149.718 306.06 150.986 302.932 152.864 300.173C154.74 297.413 157.182 295.085 160.027 293.343C170.754 287.493 181.293 295.962 183.592 307.277C183.611 307.456 183.56 307.637 183.452 307.782C183.346 307.928 183.187 308.028 183.01 308.064C182.833 308.101 182.648 308.068 182.493 307.977C182.337 307.885 182.221 307.739 182.168 307.566C180.074 297.271 170.623 289.235 160.737 294.623C158.082 296.261 155.802 298.445 154.052 301.029C152.302 303.614 151.122 306.54 150.587 309.615C150.495 310.175 149.76 312.733 150.1 313.191C150.167 313.26 150.22 313.341 150.257 313.429C150.294 313.518 150.312 313.614 150.312 313.71C150.31 313.807 150.292 313.903 150.253 313.99C150.216 314.08 150.161 314.159 150.092 314.228C150.025 314.296 149.944 314.348 149.854 314.385C149.765 314.422 149.669 314.44 149.573 314.438C149.477 314.438 149.382 314.418 149.293 314.381C149.204 314.342 149.124 314.289 149.056 314.22Z" fill="#FCCAC2"/>
<path d="M317.672 282.242C310.595 257.464 282.298 162.617 273.12 130.911C273.069 130.733 272.951 130.58 272.79 130.486C272.632 130.391 272.44 130.36 272.259 130.401L156.419 156.255C156.323 156.277 156.232 156.317 156.152 156.375C156.073 156.432 156.006 156.505 155.953 156.589C155.902 156.673 155.869 156.766 155.855 156.863C155.841 156.961 155.847 157.06 155.871 157.155L196.185 310.523C196.232 310.708 196.352 310.867 196.515 310.966C196.677 311.066 196.873 311.096 197.06 311.054L317.125 283.154C317.223 283.134 317.314 283.093 317.396 283.034C317.477 282.977 317.544 282.902 317.597 282.816C317.648 282.731 317.68 282.637 317.695 282.537C317.707 282.438 317.699 282.338 317.672 282.242ZM311.698 266.672L282.51 273.37L277.77 257.124L306.909 250.506L311.698 266.672ZM244.148 245.305L239.575 229.67L266.46 223.565L270.989 239.112L244.148 245.305ZM271.4 240.508L275.941 256.068L249.105 262.25L244.559 246.709L271.4 240.508ZM239.164 228.266L234.614 212.708L261.476 206.479L266.055 222.167L239.164 228.266ZM234.215 211.347L229.661 195.767L256.523 189.526L261.065 205.091L234.215 211.347ZM229.256 194.367L224.836 178.83L251.582 172.58L256.118 188.128L229.256 194.367ZM227.831 194.699L199.891 201.235L195.296 185.565L223.401 179.133L227.831 194.699ZM228.238 196.105L232.792 211.679L204.852 218.18L200.298 202.641L228.238 196.105ZM233.191 213.04L237.74 228.594L209.813 235.087L205.253 219.519L233.191 213.04ZM238.151 229.998L242.723 245.633L214.795 252.084L210.226 236.491L238.151 229.998ZM243.134 247.037L247.681 262.58L219.758 269.011L215.208 253.488L243.134 247.037ZM248.108 264.023L252.947 280.154L224.911 286.687L220.169 270.407L248.108 264.023ZM249.532 263.695L276.346 257.454L281.083 273.695L254.372 279.823L249.532 263.695ZM301.864 233.469L306.421 248.856L277.367 255.738L272.827 240.179L301.864 233.469ZM301.457 232.069L272.414 238.777L267.884 223.248L296.846 216.532L301.457 232.069ZM296.441 215.132L267.485 221.847L262.906 206.156L291.803 199.46L296.441 215.132ZM286.777 182.505L291.362 197.989L262.501 204.766L257.961 189.2L286.777 182.505ZM286.37 181.103L257.558 187.796L253.022 172.246L281.757 165.531L286.37 181.103ZM276.535 147.898L281.341 164.129L252.613 170.844L247.878 154.609L276.535 147.898ZM246.453 154.941L251.187 171.174L224.292 177.452L219.534 161.209L246.453 154.941ZM218.124 161.51L222.874 177.753L194.88 184.167L190.112 167.928L218.124 161.51ZM166.232 191.017L161.989 174.463L188.741 168.235C188.741 168.439 188.537 167.596 193.472 184.485C166.219 190.828 166.464 190.665 166.211 191.021L166.232 191.017ZM170.758 208.111L166.494 192.104C166.816 192.261 166.545 192.238 193.863 185.897L198.452 201.567C170.733 207.922 170.99 207.753 170.737 208.117L170.758 208.111ZM171.04 209.182C171.476 209.385 171.087 209.336 198.883 202.967L203.434 218.508C175.23 224.983 175.471 224.874 175.251 225.075L171.04 209.182ZM175.583 226.327C175.831 226.386 175.599 226.398 203.826 219.851L208.383 235.419C179.766 242.073 179.998 241.965 179.777 242.167L175.583 226.327ZM184.28 259.167L180.108 243.418C180.369 243.475 180.129 243.488 208.802 236.823L213.366 252.415L184.28 259.167ZM184.644 260.527L213.769 253.811L218.313 269.34L188.851 276.418L184.644 260.527ZM189.201 277.749C190.88 277.267 189.201 277.692 218.725 270.753L223.486 287.018L193.507 294.005L189.201 277.749ZM197.451 309.464L193.873 295.423L223.912 288.475L227.972 302.348L197.451 309.464ZM229.4 302.01L225.355 288.138L253.407 281.652L257.361 295.49L229.4 302.01ZM258.783 295.156L254.832 281.318L281.531 275.144L285.546 288.909L258.783 295.156ZM286.972 288.581L282.955 274.819L312.129 268.073L316.079 281.898L286.972 288.581Z" fill="#FCCAC2"/>
<path d="M137.429 325.217L98.7187 167.605C98.6746 167.423 98.5622 167.265 98.4049 167.164C98.2478 167.063 98.0578 167.026 97.8742 167.061L-18.9816 189.117C-19.0776 189.135 -19.1692 189.172 -19.2506 189.226C-19.332 189.28 -19.4018 189.35 -19.4557 189.432C-19.5097 189.513 -19.5465 189.605 -19.5644 189.701C-19.5823 189.797 -19.5805 189.896 -19.5595 189.992L15.0579 349.645C15.099 349.833 15.2115 349.995 15.3716 350.101C15.5318 350.205 15.7268 350.244 15.9146 350.207L136.863 326.105C136.959 326.086 137.051 326.048 137.132 325.991C137.213 325.936 137.282 325.865 137.335 325.781C137.388 325.7 137.423 325.606 137.44 325.508C137.456 325.413 137.452 325.313 137.429 325.217ZM132.022 309.017L102.646 314.749L98.6048 297.908L127.807 291.961L132.022 309.017ZM65.3977 284.365L61.4884 268.046L88.4053 262.674L92.4265 278.954L65.3977 284.365ZM92.7765 280.378L96.8058 296.697L69.7688 302.079L65.7375 285.759L92.7765 280.378ZM61.1425 266.63L57.1274 250.435L84.1726 245.026L88.0635 261.267L61.1425 266.63ZM56.7815 249.015L52.8885 232.639L79.7953 227.348L83.8246 243.598L56.7815 249.015ZM52.5446 231.219L48.5356 215.049L75.5564 209.686L79.4493 225.936L52.5446 231.219ZM48.1653 213.514L44.2988 197.25L71.2707 191.827L75.2064 208.246L48.1653 213.514ZM42.8743 197.537L46.7408 213.797L18.5275 219.391L14.6 203.142L42.8743 197.537ZM47.103 215.325L51.1119 231.491L22.8885 237.033L18.8938 220.922L47.103 215.325ZM51.4559 232.912L55.3488 249.292L27.1356 254.865L23.2345 238.453L51.4559 232.912ZM55.6866 250.712L59.7017 266.906L31.4986 272.523L27.4714 256.286L55.6866 250.712ZM60.0476 268.325L63.9589 284.641L35.8759 290.179L31.8507 273.952L60.0476 268.325ZM64.2967 286.029L68.328 302.35L40.1453 307.961L36.2259 291.615L64.2967 286.029ZM68.676 303.762L72.862 320.716L44.6223 326.282L40.4669 309.291L68.676 303.762ZM70.1127 303.482L97.166 298.18L101.208 315.02L74.2967 320.429L70.1127 303.482ZM127.467 290.598L98.2405 296.418L94.2132 280.103L123.47 274.422L127.467 290.598ZM123.12 273.001L93.8612 278.683L89.84 262.403L119.057 256.573L123.12 273.001ZM114.614 238.591L118.713 255.171L89.4982 260.989L85.6011 244.739L114.071 239.041C114.192 239.017 114.306 238.964 114.401 238.882C114.496 238.803 114.569 238.701 114.614 238.585V238.591ZM110.357 221.357L114.427 237.794C114.343 237.718 114.242 237.664 114.133 237.633C114.024 237.602 113.909 237.598 113.798 237.621L85.2674 243.319L81.2401 227.071L110.357 221.357ZM110.003 219.933L80.884 225.649L76.989 209.401L106.102 203.624L110.003 219.933ZM76.6471 207.977L72.7114 191.554L101.743 185.944L105.748 202.206L76.6471 207.977ZM-13.89 208.801L13.1551 203.435L17.0806 219.684L-10.3919 225.132L-13.89 208.801ZM-10.0642 226.683L17.4571 221.221L21.4539 237.334L-6.57013 243.012L-10.0642 226.683ZM-6.2547 244.462L21.7998 238.754L25.6989 255.162C-2.63444 260.757 -2.4228 260.673 -2.63037 260.83L-6.2547 244.462ZM-2.34954 262.128C-2.11348 262.179 -2.3068 262.181 26.0407 256.583L30.0232 272.834L1.14863 278.575L-2.34954 262.128ZM1.46609 280.036L30.3631 274.267L34.3415 290.502L4.93373 296.296L1.46609 280.036ZM5.24305 297.741L34.7017 291.941L38.7025 308.272L8.83278 314.204L5.24305 297.741ZM12.8316 332.574L9.13803 315.616L39.0281 309.601L43.1897 326.589L12.8316 332.574ZM16.3318 348.65L13.1429 333.998L43.5377 328.007L47.0908 342.513L16.3318 348.65ZM48.5234 342.234L44.9764 327.733L73.2141 322.167L76.6736 336.628L48.5234 342.234ZM78.0981 336.333L74.6488 321.874L101.558 316.463L105.145 330.944L78.0981 336.333ZM106.588 330.657L103.002 316.18L132.378 310.443L135.837 324.829L106.588 330.657Z" fill="#FCCAC2"/>
<path d="M121.214 154.456C120.917 153.27 120.467 152.2 120.196 151.097C120.151 150.917 120.039 150.761 119.884 150.661C119.728 150.56 119.54 150.522 119.358 150.555C117.75 150.846 -19.5025 178.028 -19.5025 178.028C-20.6584 178.301 -21.9567 178.608 -23.2428 179.029C-25.6995 179.837 -27.868 181.341 -29.4846 183.36C-31.1012 185.378 -32.0959 187.823 -32.3474 190.397C-33.4341 202.643 -24.936 237.405 -3.36496 337.678C-1.41136 346.76 2.39002 364.709 11.4458 362.175C11.9973 362.022 12.5019 361.261 10.8638 360.388C6.48648 358.064 5.3021 350.602 2.46328 339.672C-1.24245 325.144 -27.2396 211.294 -28.4382 187.83C-28.6865 182.946 -27.8155 181.485 -19.1749 179.448C-19.1749 179.448 117.394 152.399 118.957 152.112C119.242 153.06 119.567 153.921 119.797 154.811C119.85 154.992 119.972 155.145 120.135 155.239C120.299 155.333 120.492 155.36 120.676 155.314C120.859 155.268 121.017 155.153 121.117 154.993C121.218 154.834 121.252 154.641 121.214 154.456Z" fill="#FCCAC2"/>
<path d="M42.8335 197.368L38.4338 179.637C38.3876 179.449 38.4184 179.249 38.5193 179.083C38.6202 178.917 38.783 178.797 38.9721 178.751C39.1609 178.705 39.3604 178.736 39.5266 178.837C39.6929 178.938 39.8121 179.101 39.8583 179.289L44.2254 196.906C44.2867 197.091 44.272 197.292 44.1849 197.466C44.0976 197.64 43.945 197.772 43.7604 197.833C43.5759 197.895 43.3744 197.88 43.2006 197.793C43.0268 197.706 42.8948 197.553 42.8335 197.368Z" fill="white"/>
<path d="M218.226 161.758C218.045 161.554 218.356 162.399 213.289 144.9C213.244 144.717 213.271 144.523 213.364 144.359C213.46 144.196 213.613 144.075 213.794 144.023C213.975 143.97 214.17 143.99 214.337 144.077C214.504 144.165 214.632 144.314 214.691 144.493L219.429 160.854C219.736 161.115 219.687 161.32 219.687 161.786C219.685 161.882 219.665 161.977 219.626 162.065C219.587 162.153 219.532 162.232 219.463 162.299C219.394 162.365 219.313 162.418 219.223 162.453C219.134 162.488 219.038 162.505 218.942 162.503C218.847 162.501 218.751 162.48 218.664 162.442C218.576 162.403 218.497 162.348 218.429 162.279C218.364 162.21 218.311 162.128 218.277 162.039C218.24 161.949 218.224 161.854 218.226 161.758Z" fill="white"/>
<path d="M194.103 97.6229C193.959 97.4625 193.886 97.2515 193.896 97.0364C193.908 96.8213 194.004 96.6194 194.164 96.4751C194.468 96.2024 224.512 69.2061 233.328 61.6949C233.493 61.5549 233.706 61.486 233.92 61.503C234.136 61.5201 234.335 61.6223 234.476 61.7865C234.616 61.951 234.685 62.1642 234.667 62.3793C234.651 62.5946 234.549 62.7943 234.384 62.9343C225.583 70.4353 195.556 97.4133 195.253 97.6839C195.174 97.7554 195.08 97.8105 194.98 97.8463C194.879 97.8819 194.773 97.8972 194.665 97.8917C194.559 97.886 194.453 97.8593 194.358 97.8131C194.262 97.7672 194.174 97.7024 194.103 97.6229Z" fill="#FCCAC2"/>
<path d="M218.348 98.3291C218.132 98.3291 217.925 98.2432 217.772 98.0906C217.62 97.938 217.534 97.731 217.534 97.5151C217.534 97.2992 217.62 97.0922 217.772 96.9394C217.925 96.7868 218.132 96.7011 218.348 96.7011C219.891 96.2269 232.16 88.9681 244.03 81.9249C257.793 73.7707 273.391 64.5277 281.527 60.2766C281.718 60.1832 281.938 60.1679 282.139 60.2343C282.341 60.3004 282.508 60.4429 282.607 60.6311C282.705 60.8191 282.725 61.0383 282.664 61.2416C282.603 61.4449 282.465 61.6165 282.28 61.7194C274.182 65.9502 258.605 75.181 244.86 83.325C222.455 96.6095 219.313 98.3291 218.348 98.3291Z" fill="#FCCAC2"/>
<path d="M61.122 113.484L34.2458 91.4263C34.1583 91.3604 34.085 91.2771 34.0305 91.1821C33.9757 91.0871 33.9409 90.9819 33.9281 90.873C33.9151 90.7641 33.9242 90.6538 33.955 90.5486C33.9859 90.4434 34.0376 90.3453 34.107 90.2606C34.1766 90.1758 34.2625 90.106 34.3597 90.0553C34.457 90.0044 34.5634 89.9739 34.6727 89.9654C34.782 89.9568 34.8919 89.9705 34.9959 90.0053C35.0997 90.0403 35.1955 90.0958 35.2775 90.1687L62.1538 112.226C62.2413 112.292 62.3143 112.375 62.3691 112.47C62.4236 112.565 62.4584 112.671 62.4714 112.78C62.4842 112.888 62.4751 112.999 62.4444 113.104C62.4136 113.209 62.3619 113.307 62.2923 113.392C62.2227 113.477 62.1369 113.547 62.0396 113.597C61.9425 113.648 61.8361 113.679 61.7266 113.687C61.6173 113.696 61.5075 113.682 61.4037 113.647C61.2997 113.612 61.2038 113.557 61.122 113.484Z" fill="#FCCAC2"/>
<path d="M40.4241 123.821C25.2837 117.037 7.64227 110.594 -12.7851 103.142L-18.0984 101.202C-18.2962 101.125 -18.4556 100.972 -18.5427 100.779C-18.6298 100.585 -18.6377 100.365 -18.5647 100.165C-18.4916 99.9657 -18.3433 99.8027 -18.1518 99.711C-17.9601 99.6192 -17.7401 99.606 -17.5388 99.6741L-12.2275 101.613C8.22835 109.078 25.8962 115.527 41.0895 122.336C41.2829 122.426 41.433 122.589 41.5075 122.789C41.582 122.99 41.5749 123.211 41.4876 123.406C41.4001 123.601 41.2397 123.754 41.0409 123.831C40.8419 123.909 40.6203 123.906 40.4241 123.821Z" fill="#FCCAC2"/>
<path d="M26.4823 142.592C26.0753 142.592 25.4099 142.513 24.2784 142.377C20.6154 141.935 10.9288 140.765 -13.8229 138.058C-14.0388 138.035 -14.2366 137.927 -14.3726 137.757C-14.5087 137.588 -14.572 137.372 -14.5484 137.156C-14.525 136.94 -14.4167 136.742 -14.2474 136.606C-14.0783 136.47 -13.8618 136.407 -13.6459 136.43C11.1201 139.147 20.8189 140.317 24.4717 140.759C25.5177 140.885 26.0509 140.95 26.3032 140.974C26.4416 140.953 26.5835 140.966 26.7155 141.013C26.8476 141.06 26.9656 141.14 27.0588 141.245C27.152 141.35 27.2174 141.476 27.2489 141.613C27.2804 141.749 27.2772 141.892 27.2393 142.027C27.1132 142.427 27.0643 142.592 26.4823 142.592Z" fill="#FCCAC2"/>
</svg>
