<svg width="346" height="400" viewBox="0 0 346 400" fill="none" xmlns="http://www.w3.org/2000/svg">
<path d="M-44.0002 352.876C-44.5922 352.876 -45.0482 352.37 -44.9982 351.788L-34.4842 231.982C-34.4402 231.484 -34.0362 231.096 -33.5382 231.07L213.354 218.956L336.564 304.108C337.018 304.422 337.132 305.044 336.818 305.498C336.504 305.954 335.88 306.066 335.428 305.752L212.496 220.794L-32.5702 233.024L-43.0082 351.962C-43.0542 352.482 -43.4902 352.874 -44.0042 352.874L-44.0002 352.876Z" fill="#501200"/>
<path d="M120.232 225.702C120.232 225.702 122.342 164.908 122.454 150.324C122.524 140.994 114.754 133.442 105.424 133.59C78.916 133.886 2.65002 134.772 2.50202 134.774C-6.83198 134.922 -14.078 142.77 -13.788 152.1L-10.826 244.952L-11.862 252.208L38.34 314.406L190.428 282.862L191.02 276.05L120.232 225.7V225.702Z" fill="#6959D6"/>
<path d="M146.74 253.986C145.12 252.79 119.91 234.918 118.01 233.55C116.808 232.684 115.344 232.366 113.864 232.514C100.376 234.59 17.7801 247.538 13.3101 248.064C10.6121 248.738 10.0401 251.606 11.5321 253.1C11.8061 253.43 33.0541 278.136 33.3021 278.424C34.3281 279.618 35.9661 280.196 37.5961 279.904C40.1121 279.454 143.478 259.158 145.554 258.728C147.654 258.292 148.814 255.522 146.738 253.99L146.74 253.986Z" fill="white"/>
<path d="M128.378 280.05C125.892 277.94 122.784 275.568 120.826 273.978C119.514 272.914 117.86 272.478 116.236 272.794C111.19 273.772 99.6501 276.052 92.3941 277.384C89.5921 278.084 89.2301 281.19 91.0621 282.716C93.7281 284.938 96.9901 287.596 98.9101 289.232C99.9501 290.118 101.43 290.574 102.76 290.268C109.972 288.618 114.144 288.052 127.344 285.084C129.758 284.542 130.186 281.582 128.38 280.048L128.378 280.05Z" fill="white"/>
<path d="M115.05 222.296L117.124 155.062C117.43 145.218 109.462 137.526 100.094 137.736C75.96 138.274 8.57396 138.77 8.42596 138.772C-0.908039 138.92 -8.15604 146.768 -7.86404 156.098L-5.34604 239.77L115.052 222.296H115.05Z" fill="white"/>
<path d="M18.8123 172.166C22.9003 173.316 29.7183 174.064 33.3163 171.724C39.8463 175.544 49.9463 176.104 55.5703 170.952C61.2903 173.708 71.7763 174.058 76.9003 170.238C80.0863 171.146 84.5503 171.58 88.0963 171.17C93.0383 171.17 90.4403 167.656 89.1463 169.04C86.4843 169.538 81.9623 169.408 78.3543 168.55C81.0323 163.584 74.2523 158.064 70.1623 160.888C67.8423 162.488 68.1543 166.672 74.5003 169.402C70.3583 171.654 61.7403 171.444 56.9643 169.39C59.3183 165.99 58.5063 162.956 56.4923 161.614C54.9163 160.566 52.7463 160.58 51.4443 161.656C48.8883 163.756 51.1203 167.82 53.8883 169.766C48.8283 173.924 40.7183 173.426 34.8903 170.304C35.4483 169.556 35.7603 168.756 35.9143 168.272C36.2763 166.224 34.7903 164.264 33.1483 163.55C30.4463 162.38 28.2163 164.804 28.6043 166.986C28.8143 168.168 29.7103 169.36 31.2683 170.54C28.0143 171.852 22.4823 171.138 19.3603 170.244C18.8343 170.098 18.2763 170.4 18.1243 170.932C17.9723 171.462 18.2803 172.016 18.8123 172.168V172.166ZM70.8683 163.224C71.0043 162.408 71.9063 162.18 72.7343 162.18C74.4863 162.18 76.1383 163.524 76.7303 165.028C77.1883 166.188 76.9063 166.996 76.3743 167.98C74.3203 167.278 70.5263 165.28 70.8703 163.226L70.8683 163.224ZM52.7183 163.198C53.3983 162.636 54.6203 162.768 55.3843 163.278C57.0443 164.382 56.4543 166.662 55.2903 168.298C54.1103 167.542 53.1643 166.454 52.5883 165.194C52.3203 164.552 52.1263 163.684 52.7163 163.198H52.7183ZM33.0743 169.37C31.6123 168.378 30.7123 167.4 30.5743 166.632C30.0763 163.834 36.2483 165.942 33.0743 169.37Z" fill="#6959D6"/>
<path d="M34.1544 197.508C34.4904 197.284 34.7564 197.012 34.9804 196.73C41.7864 199.532 51.2144 198.79 56.4864 194.742C62.5084 198.088 71.6724 198.388 77.0044 193.184C79.3764 193.708 82.1704 193.826 84.0524 193.672C88.3524 193.322 89.1724 192.664 90.6184 191.942C91.1124 191.696 91.3124 191.094 91.0664 190.6C90.8184 190.106 90.2184 189.904 89.7244 190.152C88.2704 190.882 87.8244 191.356 83.8904 191.678C81.9784 191.834 80.0924 191.704 78.3664 191.41C78.4404 191.268 78.5064 191.132 78.5664 191.008C80.6384 187.892 79.0624 183.158 74.7564 182.206C71.6924 181.796 68.8044 183.854 69.3404 186.9C69.7204 189.438 71.6104 191.398 74.7204 192.534C70.1444 196.086 62.8404 195.756 57.8924 193.22C59.3704 191.228 60.0144 188.46 58.2264 186.126C56.5904 183.99 52.8624 183.46 51.6444 186.344C50.3484 189.414 52.9884 192.106 54.8084 193.506C50.2484 196.698 42.0304 197.326 36.0404 194.996C37.4924 191.644 36.1464 187.814 32.1784 187.102C29.9004 186.694 29.0784 187.662 28.7844 188.314C27.8904 190.294 29.8364 193.612 31.2844 194.694C31.8564 195.076 32.4424 195.464 33.0764 195.82C33.0304 195.858 32.9824 195.894 32.9304 195.93C29.6684 198.922 23.4944 199.3 19.4104 197.94C18.8824 197.766 18.3204 198.048 18.1464 198.572C17.9724 199.096 18.2544 199.662 18.7784 199.836C23.4764 201.404 30.4124 200.95 34.1624 197.498L34.1544 197.508ZM71.3104 186.58C71.0404 185.04 72.4704 184.15 73.9904 184.15C76.5604 184.15 78.5084 187.414 76.8364 190.01C76.6664 190.348 76.5024 190.676 76.3224 190.954C74.3964 190.404 71.7024 189.18 71.3124 186.58H71.3104ZM53.4824 187.124C53.7004 186.604 54.0404 186.35 54.6104 186.35C56.7604 186.35 58.5064 189.128 56.2404 192.088C54.9284 191.118 52.6584 189.078 53.4824 187.124ZM30.6004 189.142C30.7204 188.878 31.5384 189.024 31.8184 189.074C34.4724 189.548 35.1344 191.998 34.2124 194.174C33.5904 193.838 33.0084 193.452 32.4204 193.062C31.3684 192.272 30.2604 189.892 30.5984 189.142H30.6004Z" fill="#6959D6"/>
<path d="M93.7763 215.586C93.5882 215.068 93.0163 214.798 92.4943 214.988C88.7303 216.356 82.9902 216.314 79.0342 215.698C80.7022 212.938 80.8703 209.596 78.2663 207.88C75.0363 205.752 70.0183 207.63 70.5183 211.748C70.7863 214.034 72.4162 215.772 75.2582 216.836C70.7642 220.67 62.9303 220.652 58.1403 217.886C58.5382 217.03 58.7383 216.074 58.7383 215.036C58.7383 213.636 57.3723 209.704 55.2163 208.732C54.2383 208.29 53.2143 208.476 52.3343 209.254C49.3743 211.882 52.2743 215.78 55.4503 218.338C53.5563 220.41 49.7363 221.244 46.5483 221.444C43.8623 221.614 40.8423 221.362 37.7303 220.562C39.5063 217.056 36.6423 213.496 33.3743 213.744C28.4143 213.372 28.4243 218.308 32.3623 220.496C32.9023 220.804 33.4562 221.084 34.0862 221.364C30.4462 223.31 25.2663 222.612 23.1263 222.2C21.8103 221.968 21.4603 223.916 22.7483 224.164C26.9343 224.97 32.1263 225.066 35.6783 222.744C35.9263 222.62 36.1503 222.45 36.3583 222.264C39.2923 223.098 42.1043 223.52 44.7323 223.52C48.8443 223.52 54.3483 222.664 57.0463 219.562C62.8283 222.976 72.5023 222.724 77.5003 217.46C82.1982 218.362 88.7583 218.472 93.1803 216.864C93.6983 216.676 93.9683 216.102 93.7783 215.582L93.7763 215.586ZM31.5483 216.194C31.6963 215.694 32.8542 215.71 33.3763 215.74C35.3822 215.614 37.1963 217.75 35.8023 219.916C34.8283 219.528 34.0703 219.168 33.3443 218.754C32.0043 218.008 31.3843 216.74 31.5463 216.192L31.5483 216.194ZM53.1223 211.978C53.0763 211.154 53.7903 210.5 54.1723 210.5C55.2443 210.5 56.7402 213.938 56.7402 215.04C56.7402 215.618 56.6603 216.142 56.4983 216.624C54.7583 215.196 53.1983 213.326 53.1223 211.98V211.978ZM72.5043 211.514C72.0943 208.138 78.8903 207.926 78.2243 212.358C78.1082 213.056 77.7463 213.806 77.3523 214.596C77.1743 214.776 76.9622 214.992 76.7562 215.232C74.8262 214.656 72.7443 213.564 72.5043 211.514Z" fill="#6959D6"/>
<path d="M100.832 136.736L8.71994 137.774C-1.05806 137.774 -9.16406 145.864 -9.01406 155.804C-7.74406 240.55 -6.68006 240.082 -6.14006 240.536C-5.59406 240.996 -6.02606 241.102 115.196 223.286C115.674 223.216 116.032 222.812 116.048 222.328L118.122 155.096C118.434 145.284 110.694 137.05 100.832 136.736ZM116.122 155.034L114.076 221.432L-4.52806 238.626L-7.01207 155.804C-7.01207 146.964 0.0459356 139.774 8.73594 139.774L100.802 138.736C109.528 139.014 116.402 146.324 116.124 155.036L116.122 155.034Z" fill="#501200"/>
<path d="M191.6 275.238L120.812 224.886C120.358 224.562 119.734 224.672 119.418 225.12C119.098 225.57 119.204 226.196 119.652 226.514L188.544 275.518L40.358 306.492L-10.418 244.244C-10.808 243.854 -11.442 243.854 -11.832 244.244C-12.222 244.634 -12.222 245.268 -11.832 245.658L38.848 307.804L37.652 314.224C37.552 314.766 37.91 315.288 38.452 315.39C38.978 315.49 39.514 315.146 39.618 314.59L40.76 308.452L191.02 277.052C191.992 277.052 192.39 275.798 191.6 275.238Z" fill="#501200"/>
<path d="M142.246 249.962C142.15 249.42 141.628 249.06 141.086 249.152L128.196 251.44L117.308 242.904L126.762 241.348C127.306 241.26 127.676 240.744 127.586 240.2C127.498 239.656 126.982 239.284 126.438 239.376L115.168 241.23L105.292 233.644C104.854 233.306 104.226 233.392 103.89 233.828C103.554 234.266 103.636 234.894 104.074 235.23L112.492 241.696L99.7099 243.95L90.9839 236.206C90.5699 235.84 89.9379 235.876 89.5719 236.29C89.2059 236.704 89.2419 237.336 89.6559 237.702L97.1959 244.392L83.5159 246.804L75.4759 238.764C75.0859 238.374 74.4519 238.374 74.0619 238.764C73.6719 239.154 73.6719 239.788 74.0619 240.178L81.0639 247.236L66.6639 249.774L58.6179 241.158C58.2419 240.754 57.6079 240.734 57.2039 241.11C56.7999 241.486 56.7799 242.12 57.1559 242.524L64.3519 250.182L49.9519 252.72L42.3559 243.856C41.9959 243.436 41.3639 243.39 40.9459 243.746C40.5259 244.106 40.4779 244.738 40.8359 245.156L47.6639 253.122L32.0619 255.872L23.9839 246.66C23.6179 246.244 22.9859 246.204 22.5719 246.568C22.1559 246.932 22.1139 247.564 22.4799 247.98L29.7579 256.28L17.2819 258.48C16.7399 258.576 16.3759 259.096 16.4719 259.64C16.5679 260.186 17.0919 260.546 17.6319 260.45L31.3019 258.056L39.1039 267.218L26.1719 269.438C25.6279 269.53 25.2619 270.048 25.3559 270.592C25.4479 271.136 25.9679 271.502 26.5099 271.408L40.6159 268.986L48.9839 278.63C49.3459 279.048 49.9779 279.092 50.3939 278.73C50.8099 278.368 50.8559 277.736 50.4939 277.32L42.9099 268.578L58.6899 265.738L66.6039 274.926C66.9659 275.346 67.5959 275.39 68.0139 275.032C68.4319 274.672 68.4799 274.04 68.1199 273.622L60.9739 265.328L76.0319 262.618L84.3979 271.694C84.7719 272.1 85.4039 272.126 85.8119 271.752C86.2179 271.378 86.2439 270.746 85.8699 270.338L78.2939 262.228L93.3819 259.648L101.902 268.168C102.292 268.558 102.926 268.558 103.316 268.168C103.706 267.778 103.706 267.144 103.316 266.754L95.8359 259.216L110.89 256.542L119.866 264.506C120.276 264.872 120.91 264.838 121.278 264.422C121.646 264.01 121.608 263.378 121.194 263.01L113.402 256.096L127.672 253.562L137.692 261.292C138.128 261.63 138.758 261.548 139.094 261.11C139.43 260.674 139.35 260.046 138.912 259.708L130.332 253.09L141.436 251.118C141.98 251.022 142.342 250.502 142.246 249.958V249.962ZM66.0379 251.976L74.4079 260.882L59.4579 263.572L51.5199 254.518L66.0399 251.976H66.0379ZM49.2139 254.922L57.1599 263.986L41.3939 266.822L33.5899 257.656L49.2119 254.92L49.2139 254.922ZM68.3419 251.572L82.8459 249.032L91.6599 257.916L76.6599 260.48L68.3399 251.572H68.3419ZM94.1239 257.492L85.3019 248.604L99.1979 246.17L108.984 254.854L94.1239 257.492ZM101.7 245.718L114.64 243.354L125.556 251.912L111.496 254.408L101.702 245.718H101.7Z" fill="#501200"/>
<path d="M7.98226 237.956C7.43426 237.956 6.98226 237.512 6.97826 236.962L6.38626 152.106C6.38226 151.564 6.81226 151.118 7.35426 151.1L103.316 147.99C103.806 147.94 104.358 148.388 104.348 149.004L103.164 224.086C103.142 225.46 101.144 225.346 101.164 224.054L102.332 150.02L8.39426 153.064L8.97826 236.944C8.98226 237.496 8.53426 237.948 7.98226 237.95V237.956Z" fill="#501200"/>
<path d="M293.054 24.446C288.776 21.312 273.358 21.04 268.174 21.04L267.138 21.188C271.136 33.036 258.396 48.284 251.588 55.99C235.262 74.47 213.474 87.588 189.982 95.086C191.804 100.552 188.206 104.712 183.762 106.192C184.914 109.264 203.344 119.54 207.456 163.354C207.914 168.24 208.64 175.498 206.864 180.976C234.222 184.576 252.478 185.032 269.506 184.086C281.358 183.428 291.906 182.464 294.09 168.98C300.196 131.282 300.31 94.792 300.31 53.618C300.31 44.288 301.678 30.764 293.054 24.444V24.446Z" fill="#501200"/>
<path d="M269.656 55.6936C270.724 56.2276 271.64 58.0916 270.988 59.3956L269.21 64.5796C268.976 65.0476 269.4 65.6696 270.098 65.3196C274.122 61.5936 274.592 60.8776 276.022 60.8776C276.762 60.8776 277.502 61.0256 277.948 61.4696L282.242 64.7276C282.39 64.8756 282.686 64.8756 282.982 64.7276C283.13 64.5796 283.278 64.2836 283.13 63.9876L280.908 59.1016C280.316 57.7696 280.76 56.1396 281.944 55.2516L286.386 52.1416C286.848 51.6796 286.452 50.9576 285.942 50.9576C277.21 51.9276 278.35 52.6476 275.724 44.2936C275.576 43.9976 275.428 43.8496 275.132 43.8496C274.836 43.8496 274.688 43.9976 274.54 44.2936C273.45 49.8956 273.542 50.5956 272.466 51.4016C271.874 51.8456 271.134 52.1416 270.54 52.1416L265.208 51.9936C264.912 51.9936 264.764 52.1416 264.616 52.4376C264.616 52.7336 264.616 53.0296 264.912 53.0296L269.65 55.6956L269.656 55.6936Z" fill="#FFB949"/>
<path d="M245.962 109.302C250.7 91.9758 272.618 84.4218 288.908 91.0858C282.836 83.6818 267.732 76.5418 254.402 76.5738C232.856 76.6258 211.874 95.2098 217.676 117.002C222.204 134.014 239.854 147.908 265.214 145.88C265.51 145.88 268.472 145.732 268.324 145.288C268.11 144.646 265.16 143.846 260.03 140.55C249.18 134.43 243.07 122.798 245.962 109.302Z" fill="#FFB949"/>
<path d="M251.44 159.506L246.108 160.098C244.628 160.246 243.282 159.362 242.85 158.024C241.108 152.64 241.252 152.396 240.628 152.396C240.332 152.396 240.184 152.544 240.036 152.84L239 158.172C238.706 159.64 237.294 160.69 236.038 160.69H230.706C230.21 160.69 229.95 161.422 230.558 161.726L235.296 164.392C235.888 164.688 236.48 165.28 236.628 166.02C236.924 166.76 236.924 167.5 236.628 168.094L234.85 173.278C234.564 173.852 235.38 174.124 235.886 173.87L239.884 170.168C240.92 169.132 242.698 169.132 243.882 170.02L248.176 173.278C248.544 173.646 249.366 173.17 249.064 172.538C246.562 167.294 246.37 167.198 246.694 165.578C246.974 164.178 247.612 163.988 252.322 160.692C252.946 160.068 252.016 159.508 251.434 159.508L251.44 159.506Z" fill="#FFB949"/>
<path d="M299.564 109.052C296.26 108.576 280.01 108.724 274.256 108.672C270.144 108.634 231.234 108.086 228.494 108.026C228.7 103.954 230.32 77.3018 230.374 76.4918C230.41 75.9418 229.994 75.4538 229.442 75.4278C228.91 75.4038 228.414 75.8078 228.378 76.3598C228.324 77.1758 226.7 103.918 226.496 107.964C223.834 107.876 199.378 107.378 184.266 106.526C182.944 106.45 182.834 108.45 184.152 108.522C198.362 109.324 225.078 109.918 226.362 109.96C226.348 110.186 223.056 182.184 223.046 182.422C223.026 182.974 223.458 183.44 224.008 183.458C224.72 183.48 225.03 182.878 225.044 182.496C225.38 173.17 228.302 110.994 228.362 110.024C231.146 110.086 293.032 110.748 296.454 110.886C297.69 110.712 299.08 111.044 299.424 111.044C300.658 111.044 300.786 109.228 299.564 109.054V109.052Z" fill="white"/>
<path d="M183.912 106.192C177.854 108.162 167.474 105.156 162.884 101.898C172.214 100.27 181.396 98.0479 190.28 95.0859C191.956 100.112 189.064 104.518 183.912 106.192Z" fill="white"/>
<path d="M267.286 21.1878C264.132 11.7878 251.974 11.0038 242.11 10.9698C220.192 10.8958 198.278 11.7478 176.506 13.0438C168.806 13.5018 156.036 11.9838 151.034 19.4118C147.754 24.2838 148.484 31.2598 148.664 36.7378C149.45 60.4438 161.742 96.3498 162.88 102.046C204.57 94.7658 234.018 76.7758 251.882 56.1378C258.62 48.3518 271.26 33.0438 267.284 21.1878H267.286Z" fill="#FCCAC2"/>
<path d="M154.294 180.978C158.71 192.93 169.106 177.094 176.656 177.868C184.952 178.72 194.232 193.692 203.164 186.458C209.256 181.524 208.312 171.15 207.458 163.356C202.652 119.414 184.884 109.182 183.764 106.194C177.692 108.12 167.326 105.158 162.736 101.9C157.256 114.044 153.26 134.184 151.926 147.216C151.334 152.992 151.988 174.738 154.296 180.98L154.294 180.978Z" fill="#FCCAC2"/>
<path d="M162.304 102.714C161.854 102.394 161.748 101.77 162.068 101.32C162.388 100.87 163.012 100.762 163.462 101.084C168.114 104.384 178.14 106.978 183.608 105.24C187.27 104.02 190.876 100.668 189.33 95.9936C189.156 95.4696 189.44 94.9036 189.964 94.7296C190.488 94.5576 191.054 94.8396 191.228 95.3636C193.142 101.106 189.018 105.558 184.226 107.144C177.84 109.17 167.1 106.12 162.304 102.716V102.714Z" fill="#501200"/>
<path d="M170.51 86.9499C171.548 85.4998 184.746 67.0059 185.6 66.0719L185.976 65.3179C186.224 64.8239 186.824 64.6238 187.318 64.8698C187.812 65.1178 188.012 65.7179 187.766 66.2119C187.44 66.8619 187.334 67.1619 187.134 67.3599C186.242 68.2519 182.192 74.1658 172.134 88.1178C171.376 89.1678 169.73 88.0359 170.51 86.9499Z" fill="#501200"/>
<path d="M175.914 145.696C175.498 145.696 175.108 145.434 174.966 145.016C171.482 134.704 167.82 124.02 166.774 113.248C166.72 112.698 167.122 112.208 167.672 112.156C168.228 112.114 168.712 112.506 168.764 113.054C169.792 123.634 173.45 134.284 176.86 144.374C177.08 145.024 176.594 145.694 175.912 145.694L175.914 145.696Z" fill="#501200"/>
<path d="M186.326 139.756C183.986 136.092 181.606 130.644 178.518 127.978C178.1 127.618 178.054 126.986 178.414 126.568C178.776 126.148 179.41 126.106 179.824 126.464C183.268 129.436 185.63 134.962 188.01 138.676C188.726 139.798 187.028 140.848 186.324 139.754L186.326 139.756Z" fill="#501200"/>
<path d="M38.486 233.698L-35.708 289.824C-35.708 289.824 51.518 383.85 54.48 384.306C57.296 384.74 132.228 322.256 132.228 322.256L38.486 233.698Z" fill="#FFB949"/>
<path d="M117.958 321.088L59.0241 264.524C58.6701 264.18 58.1221 264.146 57.7301 264.44L-4.46394 310.642C-4.94394 310.998 -5.00994 311.694 -4.59794 312.13C49.3741 369.1 53.0021 372.422 54.6261 372.422C55.1541 372.422 55.8081 372.422 71.0961 360.504C71.0961 360.504 117.856 322.624 117.916 322.574C118.368 322.192 118.39 321.498 117.958 321.088ZM94.1141 323.012L82.4981 311.394C89.5341 305.956 93.8861 302.638 95.0081 301.826L106.904 313.33C105.39 314.506 100.732 318.072 94.1141 323.012ZM70.5921 358.346C68.2481 356.358 65.2281 353.49 61.5861 349.986C66.5301 346.308 72.4501 341.9 78.2181 337.512C81.4601 340.878 84.2341 343.668 86.1661 345.86L70.5921 358.346ZM44.4021 360.376C41.2361 357.194 37.5641 353.4 33.6861 349.396C35.4441 348.072 44.6881 340.836 47.2841 338.838C51.1541 342.694 55.0441 346.462 58.5001 349.794C56.4421 351.338 46.4501 358.876 44.4021 360.376ZM18.5081 333.576C14.8661 329.804 11.4621 326.268 8.40206 323.078C8.82206 322.786 11.1621 320.624 21.2321 312.664C24.3221 315.87 27.9821 319.536 31.8441 323.398C28.3221 326.048 19.6221 332.728 18.5081 333.576ZM44.7381 276.762L52.9701 284.994C50.3041 287.068 40.9381 294.516 39.1721 295.914C35.6201 292.376 33.1961 290.062 30.2921 287.32C45.8261 275.78 44.5381 276.562 44.7381 276.762ZM65.9001 297.774C64.3381 298.936 54.9661 305.952 51.8161 308.276C51.8161 308.276 43.8261 300.544 40.5961 297.334C42.3021 295.984 51.6821 288.528 54.4081 286.408C57.7741 289.656 61.7241 293.6 65.9001 297.774ZM79.4641 311.214C75.2841 314.452 70.5441 318.14 65.6661 321.962C63.5801 319.88 55.2061 311.638 53.2581 309.698C56.3241 307.434 65.6981 300.416 67.3301 299.202C71.2881 303.16 75.3581 307.224 79.4641 311.212V311.214ZM37.5881 297.158C34.5361 299.548 23.6621 308.206 21.4041 309.984C16.0721 304.642 12.5621 301.004 12.2721 300.706L28.6681 288.524C28.8441 288.748 33.8281 293.418 37.5861 297.158H37.5881ZM22.8101 311.422C25.0201 309.682 35.9021 301.016 39.0141 298.582C42.2461 301.798 46.1081 305.538 50.1841 309.484C44.5941 313.628 38.8741 318.01 33.4521 322.18C29.5821 318.308 25.9181 314.64 22.8101 311.422ZM51.6301 310.902C53.6421 312.908 62.0041 321.138 64.0781 323.206C61.4681 325.252 50.2421 333.976 47.4481 336.178C46.0761 334.808 37.5901 326.41 34.8641 323.616C40.3101 319.428 46.0421 315.04 51.6301 310.9V310.902ZM48.8741 337.6C51.6161 335.442 62.8281 326.728 65.5041 324.63C69.5501 328.676 73.3861 332.518 76.8201 336.064C71.1641 340.366 65.4161 344.648 60.1261 348.582C56.6701 345.252 52.7641 341.472 48.8761 337.6H48.8741ZM78.4321 334.854C75.0121 331.316 71.1901 327.488 67.0901 323.386C71.9801 319.556 76.7261 315.864 80.9021 312.63L92.5081 324.236C88.0621 327.666 83.2341 331.308 78.4321 334.854ZM93.5521 300.422C91.2961 302.078 84.7001 307.166 81.0601 309.978C76.9581 305.998 72.8961 301.944 68.9441 297.992C81.2241 288.73 81.1561 289.028 81.4401 288.71L93.5521 300.422ZM79.9881 287.322C78.3021 288.51 73.4961 292.054 67.5181 296.566C63.3341 292.384 59.3721 288.426 55.9901 285.158C62.2821 280.108 66.8661 276.526 67.8001 275.798L79.9881 287.324V287.322ZM58.2441 266.554L66.3421 274.398C65.0141 275.436 60.5341 278.944 54.5521 283.748L46.2601 275.458L58.2441 266.556V266.554ZM-2.37194 311.584C12.1761 300.776 10.5861 301.836 10.8101 302.072C10.8101 302.072 14.3381 305.734 19.8201 311.23C14.6721 315.304 10.0941 319.02 7.18006 321.498C6.95806 321.686 8.12206 322.802 -2.37394 311.584H-2.37194ZM19.8921 335.036C20.9621 334.22 29.6581 327.546 33.2581 324.836C36.0401 327.692 44.5421 336.106 45.8541 337.414C43.3381 339.352 34.0661 346.61 32.2821 347.948C28.1621 343.696 23.9161 339.312 19.8901 335.034L19.8921 335.036ZM45.8201 361.816C47.8561 360.32 57.8101 352.812 59.9581 351.2C63.6841 354.784 66.6081 357.568 68.9881 359.61C58.4981 367.772 55.5041 369.816 54.6521 370.318C53.9981 369.846 51.9781 368.112 45.8201 361.816ZM87.7241 344.606C85.7981 342.418 83.0301 339.624 79.8301 336.306C84.6401 332.752 89.4781 329.098 93.9181 325.672C96.9301 328.796 99.5881 331.464 101.546 333.422C97.2581 336.802 92.5741 340.688 87.7241 344.604V344.606ZM103.122 332.172C101.224 330.274 98.5641 327.608 95.5221 324.456C101.702 319.84 106.856 315.91 108.356 314.73L115.768 321.772C113.912 323.334 109.176 327.296 103.122 332.172Z" fill="white"/>
<path d="M5.97608 289.878C9.87808 289.442 13.4601 287.682 16.1541 284.838C16.8481 284.006 17.2961 283.1 17.4781 282.174C22.9421 281.588 29.8521 277.934 30.5461 272.752C34.9301 271.974 40.5481 269.302 40.5921 264.85C44.1881 263.772 50.3281 258.446 48.1621 256.852C47.5741 256.422 46.6061 256.786 46.5261 257.586C45.2461 260.11 42.6721 262.044 40.2801 262.85C38.1401 257.196 29.6681 256.752 28.2041 260.318C27.9501 260.94 27.8521 261.924 28.8541 263.092C31.2121 265.746 35.0581 266.124 38.5381 265.35C37.9761 268.318 33.4681 270.142 30.5061 270.724C30.1661 269.21 29.2681 267.874 27.9441 266.926C24.6321 264.562 20.2221 265.79 19.5681 268.468C18.7521 271.814 24.7941 273.456 28.4421 273.094C27.4161 276.84 21.7501 279.66 17.4561 280.162C16.9481 277.832 14.8221 275.838 11.9741 275.208C9.81407 274.902 7.03807 275.242 6.84207 277.414C6.48607 280.444 10.6101 281.968 13.6101 282.234C14.0881 282.234 14.6861 282.288 15.3681 282.298C15.2121 282.72 14.9721 283.134 14.6601 283.508C12.4701 285.82 9.55007 287.322 6.35007 287.81C6.14407 285.202 3.25408 283.606 0.560077 283.802C-4.64192 284.666 -4.07593 290.062 3.68207 289.93C3.25407 290.594 2.69007 291.208 2.04208 291.692C-1.13993 294.116 -4.33393 296.118 -7.71993 297.814C-8.89193 298.4 -8.01793 300.196 -6.82592 299.604C-3.32592 297.854 -0.0279245 295.786 3.25008 293.29C4.44808 292.39 5.41008 291.178 5.97808 289.878H5.97608ZM30.0541 261.076C30.2241 260.66 31.3061 260.118 32.4681 260.02C36.4541 259.806 38.2001 262.962 38.3321 263.34C32.3161 264.732 29.8381 261.602 30.0541 261.076ZM21.5081 268.944C21.6221 268.48 22.4481 267.856 23.3821 267.712C25.6361 267.374 27.9781 268.842 28.5341 271.072C24.9861 271.528 21.2761 269.888 21.5081 268.944ZM13.7721 280.238C13.4881 280.238 10.1661 279.772 9.08208 278.432C8.05608 277.162 10.0201 276.95 11.6141 277.176C13.5121 277.598 14.9781 278.84 15.4281 280.3C14.9621 280.296 14.1681 280.238 13.7721 280.238ZM-0.709924 286.84C-1.15392 286.318 0.116076 285.902 0.790076 285.786C2.21608 285.686 4.16608 286.482 4.33808 287.902C3.87008 287.934 3.37408 287.934 2.94408 287.934C1.86208 287.934 -0.145926 287.498 -0.711926 286.84H-0.709924Z" fill="white"/>
<path d="M232.188 320.184C227.132 298.532 208.938 221.852 203.754 200.082C203.014 196.972 199.756 194.896 196.646 195.64C178.724 199.922 123.784 212.816 105.718 217.114C102.608 217.854 100.532 221.114 101.276 224.222C106.442 245.848 129.71 344.324 129.71 344.324C130.45 347.434 133.708 349.51 136.818 348.766C154.74 344.484 209.658 331.498 227.746 327.292C231 326.536 232.948 323.438 232.188 320.184Z" fill="white"/>
<path d="M220.194 306.708C216.196 288.642 200.942 224.814 197.388 210.894C196.914 208.762 194.572 206.65 191.464 207.34C165.844 212.968 140.372 218.89 115.05 225.406C112.532 225.998 110.756 228.516 111.348 231.182L134.154 326.996C134.796 329.668 137.58 331.106 140.078 330.55C165.698 324.922 191.17 319 216.492 312.484C219.01 311.892 220.786 309.374 220.194 306.708Z" fill="#FCCAC2"/>
<path d="M179.32 275.608C174.174 287.424 170.274 307.688 155.774 312.038C145.366 315.16 135.93 308.188 128.082 303.004L113.124 239.178L113.568 239.03C129.858 229.996 147.02 247.93 156.514 258.578C170.206 273.93 172.808 273.004 179.32 275.608Z" fill="#6959D6"/>
<path d="M135.634 350.068C132.476 350.068 129.618 347.924 128.882 344.692L100.452 224.602C99.5899 220.982 101.814 217.158 105.646 216.286C115.976 213.81 188.924 196.632 196.564 194.816C200.18 193.956 204.006 196.172 204.88 200.01C207.864 212.46 231.114 310.878 233.31 320.1C234.172 323.72 231.948 327.544 228.116 328.416C227.912 328.464 136.938 350.07 135.634 350.07V350.068ZM102.396 224.138L130.83 344.238C131.452 346.972 134.166 348.554 136.734 347.94C144.376 346.122 217.32 328.944 227.66 326.466C230.378 325.848 231.978 323.15 231.364 320.562C229.168 311.338 205.918 212.922 202.93 200.464C202.304 197.706 199.57 196.152 197.026 196.76C189.384 198.578 116.44 215.756 106.1 218.234C103.384 218.852 101.782 221.55 102.396 224.138Z" fill="#501200"/>
<path d="M133.18 327.23L110.374 231.412C109.682 228.296 111.678 225.172 114.82 224.432C137.73 218.538 162.736 212.626 191.248 206.362C194.868 205.556 197.762 207.974 198.364 210.674C202.08 225.234 221.17 306.49 221.17 306.49C221.86 309.592 219.864 312.716 216.72 313.456C193.842 319.344 168.834 325.256 140.292 331.526C137.132 332.228 133.924 330.32 133.18 327.23ZM191.68 208.316C163.188 214.574 138.204 220.48 115.298 226.374C113.196 226.87 111.87 228.926 112.322 230.964L135.124 326.764C135.668 329.026 138.004 329.988 139.858 329.574C168.38 323.31 193.362 317.402 216.24 311.514C218.342 311.02 219.668 308.962 219.214 306.924C219.214 306.924 200.138 225.722 196.416 211.14C196.016 209.344 194.084 207.782 191.678 208.316H191.68Z" fill="#501200"/>
<path d="M184.356 334.068C181.436 334.068 179.062 331.692 179.062 328.774C179.062 325.856 181.438 323.48 184.356 323.48C187.274 323.48 189.65 325.856 189.65 328.774C189.65 331.692 187.274 334.068 184.356 334.068ZM184.356 325.478C182.54 325.478 181.062 326.956 181.062 328.772C181.062 330.588 182.54 332.066 184.356 332.066C186.172 332.066 187.65 330.588 187.65 328.772C187.65 326.956 186.172 325.478 184.356 325.478Z" fill="#501200"/>
<path d="M220.194 306.708C216.112 288.92 208.388 254.124 207.754 251.656C205.328 251.656 202.01 252.558 201.81 252.596C175.766 261.278 178.17 285.75 166.668 302.266C163.588 306.466 160.566 309.524 155.624 310.938C145.94 313.986 137.102 307.556 128.782 302.024C129.794 308.218 132.322 319.384 134.154 326.996C134.786 329.618 137.58 331.106 140.078 330.55C165.698 324.922 191.17 319 216.492 312.484C219.01 311.892 220.786 309.374 220.194 306.708Z" fill="#501200"/>
<path d="M246.258 277.978L244.48 283.902L175.026 269.242L176.506 263.022C176.358 263.318 227.598 274.128 246.256 277.98L246.258 277.978Z" fill="#6959D6"/>
<path d="M162.586 263.168L174.878 269.388L176.358 263.464L162.586 263.168Z" fill="white"/>
<path d="M249.954 277.876C248.312 277.642 184.054 263.624 176.83 262.676C176.406 262.17 177.162 262.33 162.598 262.168C161.44 262.26 161.264 263.62 162.136 264.06L174.286 270.208C174.57 270.492 175.098 270.708 175.602 270.352C190.644 273.528 248.138 285.65 248.338 285.706C249.662 286.49 252.734 285.364 253.31 282.764C253.742 280.614 252.348 278.274 249.954 277.876ZM175.166 264.306L174.402 268.026L166.87 264.214L175.164 264.306H175.166ZM177.144 264.616C183.894 265.932 226.586 274.938 244.85 278.846L243.7 282.682L176.356 268.466L177.146 264.616H177.144Z" fill="#501200"/>
</svg>
